<svg xmlns="http://www.w3.org/2000/svg" viewBox="0 0 512 512"><style>.a{fill:#5DC1D8;}.b{fill:#D9EAFC;}.c{fill:#C3DDF4;}.d{fill:#3EB7FF;}.e{fill:#F87EAB;}.f{fill:#1E99D6;}.g{fill:#91E0E8;}.h{fill:#FFF;}</style><circle cx="250.5" cy="267" r="245" class="a"/><path d="M272.5 511c-5 0-9-4-9-9V227.7c0-5 4-9 9-9h125.1V5c0-2.7-2.2-5-5-5H108.4c-2.7 0-5 2.3-5 5v40.8c36 3.6 64.3 34 64.3 71s-28.3 67.4-64.3 71V463C144.4 493.8 195.3 512 250.5 512c7.5 0 14.9-0.3 22.2-1H272.5z" class="b"/><path d="M103.4 187.8V463c6.4 4.8 13 9.3 19.8 13.5V182.8C117.1 185.4 110.4 187.1 103.4 187.8z" class="c"/><path d="M123.3 50.7V5c0-2.7 2.3-5 5-5h-19.8c-2.7 0-5 2.3-5 5v40.8C110.4 46.5 117.1 48.2 123.3 50.7z" class="c"/><path d="M273.7 87H161.2c2.2 4.7 3.9 9.8 5 15h107.5c4.1 0 7.5-3.4 7.5-7.5C281.2 90.4 277.8 87 273.7 87z" class="d"/><path d="M273.7 111H167.5c0.2 1.9 0.3 3.8 0.3 5.7 0 3.1-0.2 6.2-0.6 9.3h106.6c4.1 0 7.5-3.4 7.5-7.5C281.2 114.4 277.8 111 273.7 111z" class="d"/><path d="M273.7 135H165.4c-1.4 5.3-3.4 10.3-5.9 15h114.2c4.1 0 7.5-3.4 7.5-7.5C281.2 138.4 277.8 135 273.7 135z" class="d"/><path d="M273.7 159H153.8c-4.2 5.7-9.2 10.8-14.9 15 0.1 0 0.2 0 0.4 0h134.4c4.1 0 7.5-3.4 7.5-7.5C281.2 162.4 277.8 159 273.7 159z" class="d"/><path d="M273.7 198H139.3c-4.1 0-7.5-3.4-7.5-7.5s3.4-7.5 7.5-7.5h134.4c4.1 0 7.5 3.4 7.5 7.5S277.8 198 273.7 198z" class="d"/><path d="M356 102h-55.3c-4.1 0-7.5-3.4-7.5-7.5s3.4-7.5 7.5-7.5H356c4.1 0 7.5 3.4 7.5 7.5C363.5 98.7 360.1 102 356 102z" class="e"/><path d="M356 126h-55.3c-4.1 0-7.5-3.4-7.5-7.5 0-4.1 3.4-7.5 7.5-7.5H356c4.1 0 7.5 3.4 7.5 7.5C363.5 122.7 360.1 126 356 126z" class="e"/><path d="M356 150h-55.3c-4.1 0-7.5-3.4-7.5-7.5s3.4-7.5 7.5-7.5H356c4.1 0 7.5 3.4 7.5 7.5C363.5 146.7 360.1 150 356 150z" class="e"/><path d="M356 174h-55.3c-4.1 0-7.5-3.4-7.5-7.5s3.4-7.5 7.5-7.5H356c4.1 0 7.5 3.4 7.5 7.5S360.1 174 356 174z" class="e"/><path d="M356 198h-55.3c-4.1 0-7.5-3.4-7.5-7.5s3.4-7.5 7.5-7.5H356c4.1 0 7.5 3.4 7.5 7.5S360.1 198 356 198z" class="e"/><path d="M263.5 231H141.8c-4.1 0-7.5 3.4-7.5 7.5s3.4 7.5 7.5 7.5H263.5V231z" class="d"/><path d="M263.5 255H141.8c-4.1 0-7.5 3.4-7.5 7.5 0 4.1 3.4 7.5 7.5 7.5H263.5V255z" class="d"/><path d="M263.5 279H141.8c-4.1 0-7.5 3.4-7.5 7.5s3.4 7.5 7.5 7.5H263.5V279z" class="d"/><path d="M263.5 303H141.8c-4.1 0-7.5 3.4-7.5 7.5s3.4 7.5 7.5 7.5H263.5V303z" class="d"/><path d="M263.5 327H141.8c-4.1 0-7.5 3.4-7.5 7.5s3.4 7.5 7.5 7.5H263.5V327z" class="d"/><path d="M263.5 375H141.8c-4.1 0-7.5 3.4-7.5 7.5s3.4 7.5 7.5 7.5H263.5V375z" class="d"/><path d="M263.5 399H141.8c-4.1 0-7.5 3.4-7.5 7.5s3.4 7.5 7.5 7.5H263.5V399z" class="d"/><path d="M263.5 423H141.8c-4.1 0-7.5 3.4-7.5 7.5s3.4 7.5 7.5 7.5H263.5V423z" class="d"/><path d="M263.5 447H141.8c-4.1 0-7.5 3.4-7.5 7.5s3.4 7.5 7.5 7.5H263.5V447z" class="d"/><path d="M506.5 502c0 5.5-4.5 10-10 10h-224c-5.5 0-10-4.5-10-10V227.7c0-5.5 4.5-10 10-10h224c5.5 0 10 4.5 10 10V502z" class="f"/><path d="M282.3 502V227.7c0-5.5 4.5-10 10-10H272.5c-5.5 0-10 4.5-10 10V502c0 5.5 4.5 10 10 10h19.8C286.8 512 282.3 507.5 282.3 502z" class="f"/><path d="M489.5 307.8c0 2.8-2.2 5-5 5h-200c-2.7 0-5-2.2-5-5v-47.2c0-2.7 2.3-5 5-5h200c2.8 0 5 2.3 5 5V307.8z" class="g"/><path d="M302 307.8v-47.2c0-2.7 2.3-5 5-5h-22.5c-2.7 0-5 2.3-5 5v47.2c0 2.8 2.3 5 5 5H307C304.3 312.8 302 310.5 302 307.8z" class="g"/><path d="M314.8 353.5c0 2.8-2.2 5-5 5H284.5c-2.7 0-5-2.2-5-5v-24.3c0-2.7 2.3-5 5-5h25.3c2.8 0 5 2.3 5 5V353.5z" class="h"/><path d="M358.5 353.5c0 2.8-2.2 5-5 5h-25.3c-2.7 0-5-2.2-5-5v-24.3c0-2.7 2.3-5 5-5h25.3c2.8 0 5 2.3 5 5V353.5z" class="h"/><path d="M402.2 353.5c0 2.8-2.2 5-5 5H371.8c-2.7 0-5-2.2-5-5v-24.3c0-2.7 2.3-5 5-5h25.3c2.8 0 5 2.3 5 5V353.5z" class="h"/><path d="M445.8 353.5c0 2.8-2.2 5-5 5h-25.3c-2.7 0-5-2.2-5-5v-24.3c0-2.7 2.3-5 5-5h25.3c2.8 0 5 2.3 5 5V353.5z" class="d"/><path d="M489.5 353.5c0 2.8-2.2 5-5 5h-25.3c-2.7 0-5-2.2-5-5v-24.3c0-2.7 2.3-5 5-5H484.5c2.8 0 5 2.3 5 5V353.5z" class="d"/><path d="M314.8 397.5c0 2.8-2.2 5-5 5H284.5c-2.7 0-5-2.2-5-5v-24.3c0-2.7 2.3-5 5-5h25.3c2.8 0 5 2.3 5 5V397.5z" class="h"/><path d="M358.5 397.5c0 2.8-2.2 5-5 5h-25.3c-2.7 0-5-2.2-5-5v-24.3c0-2.7 2.3-5 5-5h25.3c2.8 0 5 2.3 5 5V397.5z" class="h"/><path d="M402.2 397.5c0 2.8-2.2 5-5 5H371.8c-2.7 0-5-2.2-5-5v-24.3c0-2.7 2.3-5 5-5h25.3c2.8 0 5 2.3 5 5V397.5z" class="h"/><path d="M445.8 397.5c0 2.8-2.2 5-5 5h-25.3c-2.7 0-5-2.2-5-5v-24.3c0-2.7 2.3-5 5-5h25.3c2.8 0 5 2.3 5 5V397.5z" class="d"/><path d="M489.5 397.5c0 2.8-2.2 5-5 5h-25.3c-2.7 0-5-2.2-5-5v-24.3c0-2.7 2.3-5 5-5H484.5c2.8 0 5 2.3 5 5V397.5z" class="d"/><path d="M314.8 441.5c0 2.8-2.2 5-5 5H284.5c-2.7 0-5-2.2-5-5v-24.3c0-2.7 2.3-5 5-5h25.3c2.8 0 5 2.3 5 5V441.5z" class="h"/><path d="M358.5 441.5c0 2.8-2.2 5-5 5h-25.3c-2.7 0-5-2.2-5-5v-24.3c0-2.7 2.3-5 5-5h25.3c2.8 0 5 2.3 5 5V441.5z" class="h"/><path d="M402.2 441.5c0 2.8-2.2 5-5 5H371.8c-2.7 0-5-2.2-5-5v-24.3c0-2.7 2.3-5 5-5h25.3c2.8 0 5 2.3 5 5V441.5z" class="h"/><path d="M445.8 441.5c0 2.8-2.2 5-5 5h-25.3c-2.7 0-5-2.2-5-5v-24.3c0-2.7 2.3-5 5-5h25.3c2.8 0 5 2.3 5 5V441.5z" class="d"/><path d="M314.8 485.5c0 2.8-2.2 5-5 5H284.5c-2.7 0-5-2.2-5-5v-24.3c0-2.7 2.3-5 5-5h25.3c2.8 0 5 2.3 5 5V485.5z" class="h"/><path d="M358.5 485.5c0 2.8-2.2 5-5 5h-25.3c-2.7 0-5-2.2-5-5v-24.3c0-2.7 2.3-5 5-5h25.3c2.8 0 5 2.3 5 5V485.5z" class="h"/><path d="M402.2 485.5c0 2.8-2.2 5-5 5H371.8c-2.7 0-5-2.2-5-5v-24.3c0-2.7 2.3-5 5-5h25.3c2.8 0 5 2.3 5 5V485.5z" class="h"/><path d="M445.8 485.5c0 2.8-2.2 5-5 5h-25.3c-2.7 0-5-2.2-5-5v-24.3c0-2.7 2.3-5 5-5h25.3c2.8 0 5 2.3 5 5V485.5z" class="d"/><path d="M459.2 412.2c-2.7 0-5 2.3-5 5v68.3c0 2.8 2.3 5 5 5H484.5c2.8 0 5-2.2 5-5v-68.3c0-2.7-2.2-5-5-5H459.2z" class="d"/><path d="M427.8 228.9c-1.6 0-3 1.4-3 3v11.4c0 1.7 1.4 3 3 3H486.5c1.7 0 3-1.3 3-3V231.9c0-1.6-1.3-3-3-3H427.8z" class="h"/><path d="M444.7 243.3V231.9c0-1.6 1.4-3 3-3h-19.8c-1.6 0-3 1.4-3 3v11.4c0 1.7 1.4 3 3 3h19.8C446 246.3 444.7 244.9 444.7 243.3z" class="b"/><path d="M360.5 41H140.5c-1.6 0-3 1.4-3 3v14.5c5 3.6 9.6 7.8 13.6 12.5H360.5c1.7 0 3-1.3 3-3V44C363.5 42.4 362.1 41 360.5 41z" fill="#445EA0"/><path d="M151.1 71h15.6c-1.6 0-3-1.3-3-3V44c0-1.6 1.4-3 3-3H140.5c-1.6 0-3 1.4-3 3v14.5C142.5 62.1 147.1 66.3 151.1 71z" fill="#293D7C"/><path d="M467.5 308.5h-10c-6.9 0-12.5-5.6-12.5-12.5v-22c0-6.9 5.6-12.5 12.5-12.5h10c6.9 0 12.5 5.6 12.5 12.5v22C480 302.9 474.4 308.5 467.5 308.5zM460 293.5h5v-17h-5V293.5z" class="a"/><circle cx="96.4" cy="116.8" r="72.4" fill="#EF9614"/><circle cx="96.4" cy="116.8" r="51.4" fill="#FFD00D"/><path d="M64.8 116.8c0-25 17.9-45.8 41.5-50.5 -3.2-0.6-6.5-1-9.9-1 -28.4 0-51.4 23-51.4 51.4s23 51.4 51.4 51.4c3.4 0 6.7-0.3 9.9-1C82.7 162.6 64.8 141.8 64.8 116.8z" fill="#FFAF10"/><path d="M106.5 109.5H89.9v-4.7h20.5c4.1 0 7.5-3.4 7.5-7.5 0-4.1-3.4-7.5-7.5-7.5h-6.5v-3.4c0-4.1-3.4-7.5-7.5-7.5s-7.5 3.4-7.5 7.5v3.4h-2.6c-6.3 0-11.4 5.1-11.4 11.4v11.9c0 6.3 5.1 11.4 11.4 11.4h16.6v4.7H82.4c-4.1 0-7.5 3.4-7.5 7.5s3.4 7.5 7.5 7.5h6.5v2.9c0 4.1 3.4 7.5 7.5 7.5s7.5-3.4 7.5-7.5v-2.9h2.6c6.3 0 11.4-5.1 11.4-11.4v-11.9C117.9 114.6 112.8 109.5 106.5 109.5z" fill="#DB722C"/></svg>
