<svg xmlns="http://www.w3.org/2000/svg" viewBox="0 0 512 512"><style>.a{fill:#FFAF10;}.b{fill:#445EA0;}.c{fill:#293D7C;}.d{fill:#1A2B63;}.e{fill:#C3DDF4;}.f{fill:#EF8318;}.g{fill:#69CDFF;}.h{fill:#5DC1D8;}.i{fill:#28A5A5;}.j{fill:#52BBEF;}.k{fill:#1E99D6;}</style><circle cx="256" cy="256" r="245" class="a"/><rect x="174.6" y="379.8" width="108" height="46.2" class="b"/><rect x="174.6" y="379.8" width="19.8" height="46.2" fill="#2E4C89"/><path d="M333.1 450c0 2.8-2.2 5-5 5H129.1c-2.7 0-5-2.2-5-5v-20c0-2.7 2.3-5 5-5h199c2.8 0 5 2.3 5 5V450z" class="c"/><path d="M144 450v-20c0-2.7 2.3-5 5-5h-19.8c-2.7 0-5 2.3-5 5v20c0 2.8 2.3 5 5 5h19.8C146.2 455 144 452.8 144 450z" class="d"/><path d="M0 370.8c0 5.5 4.5 10 10 10h300.2v-67H0V370.8z" class="c"/><path d="M19.8 370.8v-57H0v57c0 5.5 4.5 10 10 10h19.8C24.3 380.8 19.8 376.3 19.8 370.8z" class="d"/><path d="M310.2 287c0-2.2 1.8-4 4-4h143.1V66.5c0-6-4.9-11-11-11H11C4.9 55.5 0 60.4 0 66.5v248.4h310.2V287z" class="b"/><path d="M310.2 287c0-2.2 1.8-4 4-4h121.1V82.5c0-2.7-2.2-5-5-5H27c-2.7 0-5 2.3-5 5v205.4c0 2.8 2.3 5 5 5h283.2L310.2 287 310.2 287z" fill="#EEF6FF"/><circle cx="228.6" cy="348.2" r="13.9" class="b"/><path d="M416.4 206.4c0 2.8-2.2 5-5 5H252.9c-2.7 0-5-2.2-5-5v-72.7c0-2.7 2.3-5 5-5h158.5c2.8 0 5 2.3 5 5L416.4 206.4 416.4 206.4z" class="a"/><path d="M267.7 206.4v-72.7c0-2.7 2.3-5 5-5h-19.8c-2.7 0-5 2.3-5 5v72.7c0 2.8 2.3 5 5 5h19.8C270 211.4 267.7 209.1 267.7 206.4z" fill="#FF9518"/><path d="M299.3 240.1h-43.1c-4.1 0-7.5-3.4-7.5-7.5s3.4-7.5 7.5-7.5h43.1c4.1 0 7.5 3.4 7.5 7.5S303.4 240.1 299.3 240.1z" class="e"/><path d="M299.3 262.9h-43.1c-4.1 0-7.5-3.4-7.5-7.5s3.4-7.5 7.5-7.5h43.1c4.1 0 7.5 3.4 7.5 7.5S303.4 262.9 299.3 262.9z" class="e"/><path d="M351.3 240.1h-32.1c-4.1 0-7.5-3.4-7.5-7.5s3.4-7.5 7.5-7.5h32.1c4.1 0 7.5 3.4 7.5 7.5S355.4 240.1 351.3 240.1z" class="e"/><path d="M351.3 262.9h-32.1c-4.1 0-7.5-3.4-7.5-7.5s3.4-7.5 7.5-7.5h32.1c4.1 0 7.5 3.4 7.5 7.5S355.4 262.9 351.3 262.9z" class="e"/><path d="M411.8 240.1h-40.8c-4.1 0-7.5-3.4-7.5-7.5s3.4-7.5 7.5-7.5h40.8c4.1 0 7.5 3.4 7.5 7.5S415.9 240.1 411.8 240.1z" class="e"/><path d="M411.8 262.9h-40.8c-4.1 0-7.5-3.4-7.5-7.5s3.4-7.5 7.5-7.5h40.8c4.1 0 7.5 3.4 7.5 7.5S415.9 262.9 411.8 262.9z" class="e"/><path d="M359.4 111.1c0 2.8-2.2 5-5 5h-11c-2.7 0-5-2.2-5-5v-11c0-2.7 2.3-5 5-5h11c2.8 0 5 2.3 5 5V111.1z" class="f"/><path d="M387.4 111.1c0 2.8-2.2 5-5 5h-11c-2.7 0-5-2.2-5-5v-11c0-2.7 2.3-5 5-5h11c2.8 0 5 2.3 5 5V111.1z" class="f"/><path d="M415.4 111.1c0 2.8-2.2 5-5 5h-11c-2.7 0-5-2.2-5-5v-11c0-2.7 2.3-5 5-5h11c2.8 0 5 2.3 5 5V111.1z" class="f"/><path d="M190.9 257h-9c-4.1 0-7.5-3.4-7.5-7.5s3.4-7.5 7.5-7.5h9c4.1 0 7.5 3.4 7.5 7.5C198.4 253.6 195 257 190.9 257z" class="g"/><path d="M156.9 257h-9c-4.1 0-7.5-3.4-7.5-7.5s3.4-7.5 7.5-7.5h9c4.1 0 7.5 3.4 7.5 7.5C164.4 253.6 161 257 156.9 257z" class="g"/><path d="M122.9 257h-9c-4.1 0-7.5-3.4-7.5-7.5s3.4-7.5 7.5-7.5h9c4.1 0 7.5 3.4 7.5 7.5C130.4 253.6 127 257 122.9 257z" class="g"/><path d="M88.9 257h-9c-4.1 0-7.5-3.4-7.5-7.5s3.4-7.5 7.5-7.5h9c4.1 0 7.5 3.4 7.5 7.5C96.4 253.6 93 257 88.9 257z" class="g"/><path d="M220.1 226.1c-4.1 0-7.5-3.4-7.5-7.5v-9c0-4.1 3.4-7.5 7.5-7.5s7.5 3.4 7.5 7.5v9C227.6 222.7 224.3 226.1 220.1 226.1z" class="g"/><path d="M220.1 192.1c-4.1 0-7.5-3.4-7.5-7.5v-9c0-4.1 3.4-7.5 7.5-7.5s7.5 3.4 7.5 7.5v9C227.6 188.7 224.3 192.1 220.1 192.1z" class="g"/><path d="M220.1 158.1c-4.1 0-7.5-3.4-7.5-7.5v-9c0-4.1 3.4-7.5 7.5-7.5s7.5 3.4 7.5 7.5v9C227.6 154.7 224.3 158.1 220.1 158.1z" class="g"/><path d="M50.1 226.1c-4.1 0-7.5-3.4-7.5-7.5v-9c0-4.1 3.4-7.5 7.5-7.5s7.5 3.4 7.5 7.5v9C57.6 222.7 54.3 226.1 50.1 226.1z" class="g"/><path d="M50.1 192.1c-4.1 0-7.5-3.4-7.5-7.5v-9c0-4.1 3.4-7.5 7.5-7.5s7.5 3.4 7.5 7.5v9C57.6 188.7 54.3 192.1 50.1 192.1z" class="g"/><path d="M50.1 158.1c-4.1 0-7.5-3.4-7.5-7.5v-9c0-4.1 3.4-7.5 7.5-7.5s7.5 3.4 7.5 7.5v9C57.6 154.7 54.3 158.1 50.1 158.1z" class="g"/><path d="M190.9 121h-9c-4.1 0-7.5-3.4-7.5-7.5s3.4-7.5 7.5-7.5h9c4.1 0 7.5 3.4 7.5 7.5S195 121 190.9 121z" class="g"/><path d="M156.9 121h-9c-4.1 0-7.5-3.4-7.5-7.5s3.4-7.5 7.5-7.5h9c4.1 0 7.5 3.4 7.5 7.5S161 121 156.9 121z" class="g"/><path d="M122.9 121h-9c-4.1 0-7.5-3.4-7.5-7.5s3.4-7.5 7.5-7.5h9c4.1 0 7.5 3.4 7.5 7.5S127 121 122.9 121z" class="g"/><path d="M88.9 121h-9c-4.1 0-7.5-3.4-7.5-7.5s3.4-7.5 7.5-7.5h9c4.1 0 7.5 3.4 7.5 7.5S93 121 88.9 121z" class="g"/><path d="M200.1 224.5c0 2.8-2.2 5-5 5h-120c-2.7 0-5-2.2-5-5v-86c0-2.7 2.3-5 5-5h120c2.8 0 5 2.3 5 5V224.5z" class="h"/><path d="M90 224.5v-86c0-2.7 2.3-5 5-5H75.1c-2.7 0-5 2.3-5 5v86c0 2.8 2.3 5 5 5H95C92.2 229.5 90 227.3 90 224.5z" class="i"/><path d="M234.1 121c0 2.8-2.2 5-5 5h-21c-2.7 0-5-2.2-5-5v-21c0-2.7 2.3-5 5-5h21c2.8 0 5 2.3 5 5V121z" class="j"/><path d="M68.1 123c0 2.8-2.2 5-5 5h-21c-2.7 0-5-2.2-5-5v-21c0-2.7 2.3-5 5-5h21c2.8 0 5 2.3 5 5V123z" class="j"/><path d="M234.1 260.9c0 2.8-2.2 5-5 5h-21c-2.7 0-5-2.2-5-5v-21c0-2.7 2.3-5 5-5h21c2.8 0 5 2.3 5 5V260.9z" class="j"/><path d="M68.1 260.9c0 2.8-2.2 5-5 5h-21c-2.7 0-5-2.2-5-5v-21c0-2.7 2.3-5 5-5h21c2.8 0 5 2.3 5 5V260.9z" class="j"/><path d="M214.2 121v-21c0-2.7 2.3-5 5-5h-11c-2.7 0-5 2.3-5 5v21c0 2.8 2.3 5 5 5h11C216.4 126 214.2 123.8 214.2 121z" class="k"/><path d="M48.2 123v-21c0-2.7 2.3-5 5-5H42.1c-2.7 0-5 2.3-5 5v21c0 2.8 2.3 5 5 5h11C50.4 128 48.2 125.8 48.2 123z" class="k"/><path d="M214.2 260.9v-21c0-2.7 2.3-5 5-5h-11c-2.7 0-5 2.3-5 5v21c0 2.8 2.3 5 5 5h11C216.4 265.9 214.2 263.6 214.2 260.9z" class="k"/><path d="M48.2 260.9v-21c0-2.7 2.3-5 5-5H42.1c-2.7 0-5 2.3-5 5v21c0 2.8 2.3 5 5 5h11C50.4 265.9 48.2 263.6 48.2 260.9z" class="k"/><path d="M435.5 366.8c-0.2-0.4-0.1-0.7-0.1-0.7 0 0 0.1 0 0.1 0 0.1 0 0.3 0 0.6 0.1l42.1 15.5v-94.6c0-2.7-2.2-5-5-5h-159c-2.7 0-5 2.3-5 5v114.8c0 2.8 2.3 5 5 5h136L435.5 366.8z" class="h"/><path d="M329 401.8v-114.8c0-2.7 2.3-5 5-5h-19.8c-2.7 0-5 2.3-5 5v114.8c0 2.8 2.3 5 5 5h19.8C331.3 406.8 329 404.5 329 401.8z" class="i"/><path d="M436.4 365.2c-1.6-0.6-2.5 0.2-1.9 1.9l26.4 71.8c0.6 1.6 2.1 2 3.4 0.7l14-14c1.2-1.2 3.3-1.2 4.5 0l16.1 16.1c1.2 1.2 3.3 1.2 4.5 0l7.7-7.7c1.2-1.2 1.2-3.3 0-4.5l-16.1-16.1c-1.2-1.2-1.2-3.3 0-4.5l14-14c1.2-1.2 0.9-2.8-0.7-3.4L436.4 365.2z" class="c"/></svg>
