<svg xmlns="http://www.w3.org/2000/svg" viewBox="0 0 512 512"><style>.a{fill:#FFF;}.b{fill:#D9EAFC;}.c{fill:#C3DDF4;}.d{fill:#FE3745;}.e{fill:#B7092B;}.f{fill:#91E0E8;}.g{fill:#5DC1D8;}.h{fill:#28A5A5;}.i{fill:#EF8318;}.j{fill:#DB722C;}.k{fill:#FF9F60;}.l{fill:#52BBEF;}.m{fill:#1E99D6;}.n{fill:#FFC987;}.o{fill:#FFDD8D;}.p{fill:#BF7E52;}</style><circle cx="256" cy="256" r="245" fill="#445EA0"/><path d="M263.5 393.9V361h-15v32.9c-10.4 3.2-18 12.9-18 24.3 0 14 11.4 25.5 25.5 25.5 14 0 25.5-11.4 25.5-25.5C281.5 406.8 273.9 397.1 263.5 393.9zM256 428.7c-5.8 0-10.5-4.7-10.5-10.5 0-5.8 4.7-10.5 10.5-10.5 5.8 0 10.5 4.7 10.5 10.5S261.8 428.7 256 428.7z" class="a"/><path d="M56 69v39l28.8 37.5c1.1 1.4 1.3 3.3 0.5 4.9 -0.8 1.6-2.4 2.6-4.2 2.6H62.1c-0.6 0-1 0.4-1 1v43.9c0 2.6-2.1 4.7-4.7 4.7H56v22c0.9 0 1.8 0.5 2.4 1.2l27.7 36.1c0.7 1 0.9 2.2 0.3 3.3 -0.5 1.1-1.6 1.8-2.8 1.8H69.6c-0.6 0-1 0.4-1 1v32.3c0 1.7-1.4 3.2-3.2 3.2H56V357c0 2.8 2.3 5 5 5h267.1c-0.7-2-1.1-4.2-1.1-6.5 0-10.6 8.6-19.3 19.3-19.3h1c0.6 0 1-0.4 1-1V289.6c0-23.6 19.2-42.9 42.9-42.9 13.1 0 25.3 5.9 33.5 16.1 0.2 0.2 0.5 0.4 0.8 0.4 0.1 0 0.2 0 0.4-0.1 3.8-1.5 7.8-2.2 11.9-2.2 6.8 0 13.1 2.1 18.4 5.6V69H56z" class="b"/><path d="M58.4 225.8l17.5 22.7v-95.6H62.1c-0.6 0-1 0.4-1 1v43.9c0 2.6-2.1 4.7-4.7 4.7H56v22C56.9 224.6 57.8 225 58.4 225.8z" class="c"/><polygon points="75.8 133.8 75.8 69 56 69 56 108 " class="c"/><path d="M75.8 357v-90H69.6c-0.6 0-1 0.4-1 1v32.3c0 1.7-1.4 3.2-3.2 3.2H56V357c0 2.8 2.3 5 5 5h19.8C78.1 362 75.8 359.8 75.8 357z" class="c"/><path d="M470 65c0 2.8-2.2 5-5 5H47c-2.7 0-5-2.2-5-5V32c0-2.7 2.3-5 5-5h418c2.8 0 5 2.3 5 5V65z" class="d"/><path d="M61.8 65V32c0-2.7 2.3-5 5-5H47c-2.7 0-5 2.3-5 5v33c0 2.8 2.3 5 5 5h19.8C64.1 70 61.8 67.8 61.8 65z" class="e"/><circle cx="144.2" cy="132.2" r="35.5" class="f"/><path d="M138.9 157.3c-13.9-13.9-13.9-36.3 0-50.2 4.4-4.4 9.6-7.4 15.2-9 -12-3.5-25.5-0.5-35 9 -13.9 13.9-13.9 36.3 0 50.2 9.5 9.5 23 12.5 35 9C148.6 164.7 143.3 161.7 138.9 157.3z" class="f"/><path d="M207.9 185.3l-28.5-28.5c11.7-16.8 10.1-40.1-4.8-55 -8.1-8.1-18.9-12.6-30.4-12.6s-22.3 4.5-30.4 12.6c-16.8 16.8-16.8 44 0 60.8 8.1 8.1 18.9 12.6 30.4 12.6 8.9 0 17.5-2.7 24.6-7.8l28.5 28.5c1.5 1.5 3.4 2.2 5.3 2.2 1.9 0 3.8-0.7 5.3-2.2C210.8 193 210.8 188.2 207.9 185.3zM124.4 152c-10.9-10.9-10.9-28.7 0-39.6 5.3-5.3 12.3-8.2 19.8-8.2s14.5 2.9 19.8 8.2c10.9 10.9 10.9 28.7 0 39.6 -5.3 5.3-12.3 8.2-19.8 8.2C136.7 160.2 129.7 157.3 124.4 152z" fill="#293D7C"/><path d="M267.8 195.5c0 1.7-1.3 3-3 3h-16.5c-1.6 0-3-1.3-3-3v-95.7c0-1.6 1.4-3 3-3h16.5c1.7 0 3 1.4 3 3V195.5z" class="g"/><path d="M297.8 195.5c0 1.7-1.3 3-3 3h-16.5c-1.6 0-3-1.3-3-3v-61.3c0-1.6 1.4-3 3-3h16.5c1.7 0 3 1.4 3 3V195.5z" class="g"/><path d="M327.8 195.5c0 1.7-1.3 3-3 3H308.3c-1.6 0-3-1.3-3-3v-43.2c0-1.6 1.4-3 3-3h16.5c1.7 0 3 1.4 3 3V195.5z" class="g"/><path d="M418 195.5c0 1.7-1.3 3-3 3h-16.5c-1.6 0-3-1.3-3-3v-23.1c0-1.6 1.4-3 3-3H415c1.7 0 3 1.4 3 3V195.5z" class="g"/><path d="M357.8 195.5c0 1.7-1.3 3-3 3h-16.5c-1.6 0-3-1.3-3-3v-77.7c0-1.6 1.4-3 3-3h16.5c1.7 0 3 1.4 3 3V195.5z" class="g"/><path d="M387.8 195.5c0 1.7-1.3 3-3 3h-16.5c-1.6 0-3-1.3-3-3v-53.1c0-1.6 1.4-3 3-3h16.5c1.7 0 3 1.4 3 3V195.5z" class="g"/><path d="M254.7 195.5v-95.7c0-1.6 1.4-3 3-3h-9.3c-1.6 0-3 1.4-3 3v95.7c0 1.7 1.4 3 3 3h9.3C256 198.5 254.7 197.1 254.7 195.5z" class="h"/><path d="M284.7 195.5v-61.3c0-1.6 1.4-3 3-3h-9.3c-1.6 0-3 1.4-3 3v61.3c0 1.7 1.4 3 3 3h9.3C286 198.5 284.7 197.1 284.7 195.5z" class="h"/><path d="M314.7 195.5v-43.2c0-1.6 1.4-3 3-3h-9.3c-1.6 0-3 1.4-3 3v43.2c0 1.7 1.4 3 3 3h9.3C316 198.5 314.7 197.1 314.7 195.5z" class="h"/><path d="M404.8 195.5v-23.1c0-1.6 1.4-3 3-3h-9.3c-1.6 0-3 1.4-3 3v23.1c0 1.7 1.4 3 3 3h9.3C406.2 198.5 404.8 197.1 404.8 195.5z" class="h"/><path d="M344.7 195.5v-77.7c0-1.6 1.4-3 3-3h-9.3c-1.6 0-3 1.4-3 3v77.7c0 1.7 1.4 3 3 3h9.3C346 198.5 344.7 197.1 344.7 195.5z" class="h"/><path d="M374.7 195.5v-53.1c0-1.6 1.4-3 3-3h-9.3c-1.6 0-3 1.4-3 3v53.1c0 1.7 1.4 3 3 3h9.3C376 198.5 374.7 197.1 374.7 195.5z" class="h"/><circle cx="129.5" cy="244" r="36" class="i"/><path d="M108 244c0-17.4 12.3-31.9 28.7-35.3 -2.3-0.5-4.8-0.7-7.3-0.7 -19.9 0-36 16.1-36 36 0 19.9 16.1 36 36 36 2.5 0 4.9-0.3 7.3-0.7C120.4 275.9 108 261.4 108 244z" class="j"/><path d="M124.8 263.6c-2 0-3.9-0.8-5.3-2.2l-13.6-13.6c-2.9-2.9-2.9-7.7 0-10.6 2.9-2.9 7.7-2.9 10.6 0l8.3 8.3 16-16c2.9-2.9 7.7-2.9 10.6 0 2.9 2.9 2.9 7.7 0 10.6l-21.3 21.3C128.7 262.8 126.8 263.6 124.8 263.6z" fill="#FFD00D"/><path d="M238 241h-55.3c-4.1 0-7.5-3.4-7.5-7.5s3.4-7.5 7.5-7.5H238c4.1 0 7.5 3.4 7.5 7.5C245.5 237.7 242.1 241 238 241z" class="k"/><path d="M221 265h-38.3c-4.1 0-7.5-3.4-7.5-7.5 0-4.1 3.4-7.5 7.5-7.5H221c4.1 0 7.5 3.4 7.5 7.5S225.1 265 221 265z" class="k"/><path d="M30.3 203.6c-3.1 0-5.7-2.5-5.7-5.7v-43.9H5.7c-2.2 0-4.1-1.2-5.1-3.2 -1-1.9-0.7-4.2 0.6-6l37.7-49.1c1.1-1.4 2.7-2.2 4.5-2.2s3.4 0.8 4.5 2.2l37.7 49.1c1.3 1.7 1.5 4 0.6 6 -1 1.9-2.9 3.2-5.1 3.2H62.1v43.9c0 3.1-2.5 5.7-5.7 5.7H30.3z" class="l"/><path d="M36.7 145.6c0-1.7-1.3-3-3-3H2.9l-1.7 2.2c-1.3 1.7-1.5 4-0.6 6 1 1.9 2.9 3.2 5.1 3.2H24.7v43.9c0 3.1 2.5 5.7 5.7 5.7h6.3L36.7 145.6 36.7 145.6z" class="m"/><path d="M46.3 304.4c-2.3 0-4.2-1.9-4.2-4.2v-32.3H28.2c-1.6 0-3-0.9-3.7-2.3 -0.7-1.4-0.5-3.1 0.4-4.4l27.7-36.1c0.8-1 2-1.6 3.3-1.6 1.3 0 2.5 0.6 3.3 1.6l27.7 36.1c1 1.3 1.1 3 0.4 4.4 -0.7 1.4-2.1 2.3-3.7 2.3H69.6v32.3c0 2.3-1.9 4.2-4.2 4.2H46.3z" class="l"/><path d="M52.1 262c0-1.7-1.3-3-3-3H26.6l-1.8 2.3c-1 1.3-1.1 3-0.4 4.4 0.7 1.4 2.1 2.3 3.7 2.3h13.9v32.3c0 2.3 1.9 4.2 4.2 4.2h5.8V262z" class="m"/><path d="M157.5 329c0 1.7-1.3 3-3 3h-60c-1.6 0-3-1.3-3-3v-18c0-1.6 1.4-3 3-3h60c1.7 0 3 1.4 3 3V329z" class="i"/><path d="M111.4 329v-18c0-1.6 1.4-3 3-3H94.5c-1.6 0-3 1.4-3 3v18c0 1.7 1.4 3 3 3h19.8C112.7 332 111.4 330.7 111.4 329z" class="j"/><path d="M195.5 329c0 1.7-1.3 3-3 3h-21c-1.6 0-3-1.3-3-3v-18c0-1.6 1.4-3 3-3h21c1.7 0 3 1.4 3 3V329z" class="i"/><path d="M230.5 329c0 1.7-1.3 3-3 3h-21c-1.6 0-3-1.3-3-3v-18c0-1.6 1.4-3 3-3h21c1.7 0 3 1.4 3 3V329z" class="i"/><path d="M178.5 329v-18c0-1.6 1.4-3 3-3h-10c-1.6 0-3 1.4-3 3v18c0 1.7 1.4 3 3 3h10C179.9 332 178.5 330.7 178.5 329z" class="j"/><path d="M213.5 329v-18c0-1.6 1.4-3 3-3h-10c-1.6 0-3 1.4-3 3v18c0 1.7 1.4 3 3 3h10C214.9 332 213.5 330.7 213.5 329z" class="j"/><path d="M319.5 329c0 1.7-1.3 3-3 3h-60c-1.6 0-3-1.3-3-3v-18c0-1.6 1.4-3 3-3h60c1.7 0 3 1.4 3 3V329z" class="d"/><path d="M273.4 329v-18c0-1.6 1.4-3 3-3h-19.8c-1.6 0-3 1.4-3 3v18c0 1.7 1.4 3 3 3h19.8C274.7 332 273.4 330.7 273.4 329z" class="e"/><path d="M348.2 308h-14.7c-1.6 0-3 1.4-3 3v18c0 1.7 1.4 3 3 3h14.7V308z" class="d"/><path d="M408.9 241H261.1c-4.1 0-7.5-3.4-7.5-7.5s3.4-7.5 7.5-7.5h147.9c4.1 0 7.5 3.4 7.5 7.5C416.4 237.7 413.1 241 408.9 241z" class="k"/><path d="M374.7 250H261.1c-4.1 0-7.5 3.4-7.5 7.5 0 4.1 3.4 7.5 7.5 7.5h95C360.7 258.4 367.2 253.2 374.7 250z" class="k"/><path d="M351.2 274h-90.1c-4.1 0-7.5 3.4-7.5 7.5s3.4 7.5 7.5 7.5h87.2C348.3 283.7 349.4 278.7 351.2 274z" class="k"/><path d="M488.8 426.4h-37.3l2.1 7.7c0.4 1.5-0.3 3.6-1.4 4.6l-21.7 18.6c-0.5 0.4-1.1 0.6-1.7 0.6 -0.7 0-1.5-0.3-1.9-0.8l-14.2-15c-0.8-0.9-1.9-1.4-3.1-1.4s-2.3 0.5-3.1 1.4l-14.2 15c-0.5 0.5-1.2 0.8-1.9 0.8 -0.6 0-1.3-0.2-1.7-0.6l-21.7-18.6c-1.2-1-1.8-3.1-1.4-4.6l2.1-7.7h-37.3c-12.8 0-23.2 10.4-23.2 23.2v26.1c0 2.7 2.2 4.9 4.9 4.9h195.2c2.7 0 4.9-2.2 4.9-4.9v-26.1C512 436.8 501.6 426.4 488.8 426.4z" class="g"/><path d="M326.9 475.7v-26.1c0-12.8 10.4-23.2 23.2-23.2h-19.8c-12.8 0-23.2 10.4-23.2 23.2v26.1c0 2.7 2.2 4.9 4.9 4.9h19.8C329 480.6 326.9 478.4 326.9 475.7z" class="h"/><path d="M409.5 471.8c-1.7 0-3.4-0.7-4.6-1.9 -1.2-1.2-1.9-2.9-1.9-4.6s0.7-3.4 1.9-4.6c1.2-1.2 2.9-1.9 4.6-1.9 1.7 0 3.4 0.7 4.6 1.9 1.2 1.2 1.9 2.9 1.9 4.6s-0.7 3.4-1.9 4.6C412.9 471.1 411.2 471.8 409.5 471.8z" class="a"/><path d="M409.8 469.9c-1.2-1.2-1.9-2.9-1.9-4.6s0.7-3.4 1.9-4.6c0.6-0.6 1.4-1.1 2.1-1.4 -0.8-0.3-1.6-0.5-2.5-0.5 -1.7 0-3.4 0.7-4.6 1.9 -1.2 1.2-1.9 2.9-1.9 4.6s0.7 3.4 1.9 4.6c1.2 1.2 2.9 1.9 4.6 1.9 0.8 0 1.7-0.2 2.5-0.5C411.2 471 410.4 470.5 409.8 469.9z" class="b"/><path d="M448.2 410.8c-10.6 8.6-24.1 13.8-38.7 13.8 -14.7 0-28.2-5.2-38.7-13.8l-6.4 23c-0.5 1.9 0.3 4.4 1.7 5.6l21.7 18.6c1.5 1.2 3.7 1.1 5.1-0.3l14.2-15c1.3-1.4 3.5-1.4 4.8 0l14.2 15c1.3 1.4 3.6 1.5 5.1 0.3l21.7-18.6c1.5-1.2 2.2-3.8 1.7-5.6L448.2 410.8z" class="b"/><path d="M382 439.4c-1.5-1.2-2.2-3.8-1.7-5.6l4-14.6c-4.9-2.2-9.4-5-13.5-8.4l-6.4 23c-0.5 1.9 0.3 4.4 1.7 5.6l21.7 18.6c1.5 1.2 3.7 1.1 5.1-0.3l4.7-4.9L382 439.4z" fill="#AEC1ED"/><path d="M437.6 260c-4.7 0-9.1 0.9-13.1 2.6 4 4.9 6.9 10.6 8.4 16.9 22.8 4.4 38.9 16.6 38.9 42.7v-28.1C471.8 275.3 456.5 260 437.6 260z" class="i"/><path d="M409.5 277.5c8.6 0 16.8 0.6 24.3 2.2 -4.5-19.4-21.9-33.9-42.7-33.9 -24.2 0-43.9 19.6-43.9 43.9v32.6C347.2 287.8 375.1 277.5 409.5 277.5z" fill="#FF9518"/><path d="M359.6 291.3v-1.7c0-22.1 16.4-40.4 37.7-43.4 -2-0.3-4.1-0.4-6.2-0.4 -24.2 0-43.9 19.6-43.9 43.9v32.6C347.2 308.3 351.8 298.3 359.6 291.3z" class="i"/><path d="M348.1 335.3h-1.9c-11.2 0-20.3 9.1-20.3 20.3s9.1 20.3 20.3 20.3h3.2c-0.8-4.1-1.3-8.3-1.3-12.6V335.3z" class="n"/><path d="M333.4 355.5c0-9.3 6.2-17.1 14.7-19.5v-0.8h-1.9c-11.2 0-20.3 9.1-20.3 20.3s9.1 20.3 20.3 20.3h3.2c0-0.2-0.1-0.3-0.1-0.5C340.2 373.4 333.4 365.2 333.4 355.5z" class="o"/><path d="M472.8 335.3h-1.9v28c0 4.3-0.5 8.5-1.3 12.6h3.2c11.2 0 20.3-9.1 20.3-20.3C493.1 344.3 484 335.3 472.8 335.3z" class="n"/><path d="M471.8 363.2c0 34.4-27.9 62.3-62.3 62.3l0 0c-34.4 0-62.3-27.9-62.3-62.3v-42c0-34.4 27.9-44.7 62.3-44.7l0 0c34.4 0 62.3 10.3 62.3 44.7V363.2z" fill="#FFE2B8"/><path d="M359.6 363.2v-42c0-32.3 24.6-43.4 56.1-44.6 -2-0.1-4.1-0.1-6.2-0.1 -34.4 0-62.3 10.3-62.3 44.7v42c0 34.4 27.9 62.3 62.3 62.3 2.1 0 4.2-0.1 6.2-0.3C384.2 422.1 359.6 395.5 359.6 363.2z" class="o"/><path d="M379.8 350.8c-3.6 0-6.5-2.9-6.5-6.5v-11.3c0-3.6 2.9-6.5 6.5-6.5 3.6 0 6.5 2.9 6.5 6.5v11.3C386.4 347.9 383.5 350.8 379.8 350.8z" class="p"/><path d="M439.2 350.8c-3.6 0-6.5-2.9-6.5-6.5v-11.3c0-3.6 2.9-6.5 6.5-6.5 3.6 0 6.5 2.9 6.5 6.5v11.3C445.7 347.9 442.8 350.8 439.2 350.8z" class="p"/><path d="M415.2 364.9h-7.9c-5.5 0-10-4.5-10-10v-18.6c0-3.6 2.9-6.5 6.5-6.5 3.6 0 6.5 2.9 6.5 6.5v15.6h4.8c3.6 0 6.5 2.9 6.5 6.5C421.7 362 418.8 364.9 415.2 364.9z" class="p"/><path d="M427.4 376.2h-35.8c-3 0-5.5 2.5-5.5 5.5 0 12.9 10.5 23.4 23.4 23.4s23.4-10.5 23.4-23.4C432.9 378.7 430.4 376.2 427.4 376.2z" class="a"/></svg>
