<svg xmlns="http://www.w3.org/2000/svg" viewBox="0 0 82.79 90.63"><defs><style>.cls-1{fill:#c7e2f3;}.cls-2{fill:#4c1d04;}.cls-3{fill:#602b15;}.cls-4{fill:#be7d5a;}.cls-5{fill:#00bad0;}.cls-6{fill:#aa7150;}</style></defs><g id="Layer_2" data-name="Layer 2"><g id="Capa_1" data-name="Capa 1"><path class="cls-1" d="M82.79,82.6c0,4.44-18.53,8-41.39,8S0,87,0,82.6s18.53-8,41.4-8S82.79,78.16,82.79,82.6Z"/><path class="cls-2" d="M53.92,30.51c-5.19.76-6.54,10.07-.52,10.53,0,4.68-2.9,13.46,4.12,12.89-2.11,12.06,14.22,1.71,16.6-.88,11.17-12.12,6-32.66-1.17-34.62C74.46,8.65,62.8,1.24,54.2,2.82c-5.48,1-9.11,10.48-8.1,16.16C46.32,20.23,53.23,30.61,53.92,30.51Z"/><path class="cls-3" d="M20,9.32c-1.39,3-2.17,7.22-.84,10.28,3,6.76,16.19,8.54,19.84,1.8,2.72-5,1.08-12.27-2.72-16.32C31-.54,23,2.93,20,9.32Z"/><path class="cls-4" d="M67.58,82.6c2-4.81,3-12-5.35-17.78L47.09,68s-.15,8.52,3.15,14.64Z"/><path class="cls-4" d="M29,82.6c2.63-17.82-7.68-16.95-7.68-16.95-7,2-7.92,12.46-8,16.95Z"/><rect class="cls-4" x="36.69" y="48.17" width="11.72" height="15.69"/><path class="cls-4" d="M16,70.65a15.91,15.91,0,0,1,8.39-6.41l12.28-4.55H48.41l12.28,4.55a15.91,15.91,0,0,1,8.38,6.41Z"/><path class="cls-5" d="M55.07,82.6c-3.51-6.16-3.65-12.7.63-20.21l-4.1-1.52a25.33,25.33,0,0,1-13.55,6s-4.26-1.79-5.19-5.74l-4.12,1.51s-1.72,6.58-9,20Z"/><path class="cls-4" d="M51,44.28a9.49,9.49,0,0,1-2.16,3.15c-4.3,4.14-10,7-16.08,7C17,47.59,22.07,17.26,22.07,17.26,24.44,2.74,36.85,2.78,36.85,2.78c9.38-.41,17.94,4,19.38,13.9.56,3.79-.17,7.85-.36,11.63a30.81,30.81,0,0,1-1.37,8.21C53.59,39.23,52.09,41.67,51,44.28Z"/><path class="cls-6" d="M24.49,45.92a16.4,16.4,0,0,0,8.23,8.55c6,0,11.78-2.9,16.08-7A9.49,9.49,0,0,0,51,44.28c.21-.47.43-.94.66-1.4C44.09,51.43,33.14,59.69,24.49,45.92Z"/><path class="cls-4" d="M52.61,33.22s1.24-5.16,5.21-3c0,0,1.79.91.5,4.45,0,0-1.88,5.11-5.71,3.24Z"/><path class="cls-4" d="M71.22,82.6C71.32,61.29,59,66.36,59,66.36c-6.32,3.36-5,11.86-3.77,16.24Z"/><path class="cls-3" d="M26.61,7.41S24.71,25.15,43,25.94c0,0,9.89.59,8.58,10.09,0,0,.28-7.33,6.2-5.84,0,0,4-5,3.11-14.67,0,0,.54-10.95-15-15.11C45.93.41,27.92-2.55,26.61,7.41Z"/></g></g></svg>