<svg xmlns="http://www.w3.org/2000/svg" viewBox="0 0 92.69 94.22"><defs><style>.cls-1{fill:#c7e2f3;}.cls-2{fill:#255caa;}.cls-3{fill:#be7d5a;}.cls-4{fill:#5d5faa;}.cls-5{fill:#602b15;}.cls-6{fill:#aa7150;}</style></defs><g id="Layer_2" data-name="Layer 2"><g id="Capa_1" data-name="Capa 1"><path class="cls-1" d="M92.69,86.19c0,4.44-20.75,8-46.34,8S0,90.63,0,86.19s20.75-8,46.35-8S92.69,81.76,92.69,86.19Z"/><path class="cls-2" d="M12.88,86.19H36.54a83.06,83.06,0,0,0,1.77-8.84s.46-10.77-10.59-9.85c0,0-12.61-.24-14.72,14.43C13,81.93,13.05,83.43,12.88,86.19Z"/><rect class="cls-3" x="39.6" y="48.72" width="12.33" height="16.5"/><path class="cls-3" d="M73.66,72.35a16.73,16.73,0,0,0-8.82-6.74L51.92,60.83H39.6L26.68,65.61a16.73,16.73,0,0,0-8.82,6.74Z"/><path class="cls-4" d="M72.68,86.19l3.51-7a16.61,16.61,0,0,0-11.35-13.6L55,62,43.75,65.78l-7.51-3.71-9.56,3.54a16.62,16.62,0,0,0-11.35,13.6l2.55,7Z"/><path class="cls-2" d="M79.81,86.19a107.93,107.93,0,0,0-5.65-14.12s-5.85-9-14.33-1.91a14.8,14.8,0,0,0-5.34,16Z"/><path class="cls-5" d="M27.1,25.27a50.1,50.1,0,0,1-.58-8.35c0-2.51.46-6.3,3.58-6.62,4.32-.44,5.66,7,5.91,10.26.36,4.47-.75,9.28-1.61,13.65-.31,1.58-.28,4.73-2,5.49-1.52.65-1.26.9-2-.25C28.44,36.7,27.5,28.45,27.1,25.27Z"/><path class="cls-3" d="M27.35,46.42C29.06,53.11,32.07,55,32.07,55l4,.78c2.33-.29,6.34-1.24,6.34-1.24,9.23-3.13,12.29-3,14.2-7.74.06-.15,6.41-24.95,6.41-24.95C64.24,8.92,50.75,6.24,48.71,5.9s-14.86-4-18.66,8.34A67.32,67.32,0,0,0,27.35,46.42Z"/><path class="cls-6" d="M53.7,48.92c-3.71,2.87-10,4.76-14.62,5.24C30.87,55,29,49,27.61,42.58c.12,1.47.29,3,.54,4.51,1.59,6.24,4.4,8,4.4,8l3.77.74c2.17-.28,5.91-1.16,5.91-1.16,8.61-2.93,11.47-2.75,13.25-7.23,0,0,.12-.46.31-1.19A8.34,8.34,0,0,1,53.7,48.92Z"/><path class="cls-5" d="M23.63,6.93c.58-.93,1.53-.77,2-2,.4-1-.39-2.45.31-3.32,1-1.3,4.71-.94,6-.51,2.32.75,2.78,2,5.28.92,2.12-.95,2.57-2.2,5.28-1.72,2,.35,3.33,1.63,5.6,1.26,2-.33,3.29-1.76,5.54-1.58a4.54,4.54,0,0,1,3.12,1.12c.93,1,.33,1.5.84,2.57.65,1.36.06,1,1.32,1.84.73.5,1.89.16,2.57.85,1.81,1.84-.24,4.49.84,6.29s4.37.69,5,3.42c.28,1.14-.74,2.09-.54,3.17.28,1.44.79,1,1.52,2.17,1.06,1.68,1.48,3,.09,5-1.56,2.23-2.14,2.42-2.13,5.52,0,3.37-.42,3-2.44,5.21-1.66,1.82-1.22,4-3.1,5.62-.69.6-1.62.7-2.38,1.57s-.84,1.92-1.8,2.62c-.39-3.93,1.87-7.65,2.06-11.59.17-3.4-.05-9.91-2-12.73-2.4-3.41-8.31-2.31-12-2.31C40.05,20.34,17.78,16.18,23.63,6.93Z"/><path class="cls-3" d="M57.08,35.72s2.28-5,5.87-2c0,0,1.63,1.27-.38,4.6,0,0-2.92,4.78-6.42,2.13Z"/></g></g></svg>