<svg xmlns="http://www.w3.org/2000/svg" viewBox="0 0 82.79 96.7"><defs><style>.cls-1{fill:#c7e2f3;}.cls-2{fill:#ef7857;}.cls-3{fill:#f8b78f;}.cls-4{fill:#4e76b3;}.cls-5{fill:#fff;}.cls-6{fill:#e6ab86;}.cls-7{fill:#537ebf;}</style></defs><g id="Layer_2" data-name="Layer 2"><g id="Capa_1" data-name="Capa 1"><path class="cls-1" d="M82.79,88.67c0,4.43-18.53,8-41.39,8S0,93.1,0,88.67s18.53-8,41.4-8S82.79,84.23,82.79,88.67Z"/><path class="cls-2" d="M32.24,69.91c-.3,6.24-.35,12.68,4.16,17.42a10.57,10.57,0,0,0,2.31,1.78H63.23c1.07-2.84.07-6.69.93-9.71s3.47-5,4.36-8c2.69-8.88-7.9-12.25-9-20.14-.92-6.79,4.26-12.45,6.1-18.4a25.28,25.28,0,0,0-.75-16.53A5.91,5.91,0,0,0,61.52,13c-1.43-.53-5.46-1.53-6.91-1.11-1,.3-2,1.57-3,2.08-4,2.11-8.08,2.68-10.1,7.27-2.22,5.05-.7,10.58-2.66,15.58C36.43,43,32.65,48.18,32,55,31.6,60,32.48,65,32.24,69.91Z"/><path class="cls-3" d="M68.37,73.23A16,16,0,0,0,60,66.82L47.7,62.27H36L23.7,66.82a15.91,15.91,0,0,0-8.39,6.41Z"/><path class="cls-3" d="M57.41,89.11H71.28a130.39,130.39,0,0,0-2.91-15.88s-4.37-5.48-11-1.08c0,0-5.09,5.07-.54,13.78Z"/><path class="cls-4" d="M58.05,89.11H72C70.91,81.43,69.88,76,69.88,76a10.49,10.49,0,0,0-6.78-7.79c-5.73.9-5.53,10-5.53,10Z"/><rect class="cls-3" x="35.98" y="50.76" width="11.72" height="15.69"/><path class="cls-5" d="M65.52,89.11a15.68,15.68,0,0,0-.44-3.18C57.42,72,60.69,67.06,60.69,67.06l-9.16-3.37c-.94,4-5.2,5.74-5.2,5.74a25.33,25.33,0,0,1-13.55-6L23.7,66.82A15.81,15.81,0,0,0,12.9,79.76l6.19,9.35Z"/><path class="cls-3" d="M33.42,46.87A9.69,9.69,0,0,0,35.58,50c4.3,4.13,10.05,7,16.09,7,15.75-6.88,10.64-37.21,10.64-37.21C60,5.33,47.53,5.36,47.53,5.36c-9.38-.41-17.94,4-19.38,13.91-.55,3.78.18,7.84.37,11.63a30.55,30.55,0,0,0,1.37,8.21C30.79,41.81,32.29,44.26,33.42,46.87Z"/><path class="cls-6" d="M59.89,48.5a16.34,16.34,0,0,1-8.22,8.55c-6,0-11.79-2.9-16.09-7a9.69,9.69,0,0,1-2.16-3.15c-.2-.48-.43-.94-.65-1.41C40.29,54,51.25,62.27,59.89,48.5Z"/><path class="cls-3" d="M31.78,35.8s-1.25-5.16-5.22-3c0,0-1.79.91-.5,4.46,0,0,1.89,5.1,5.72,3.23Z"/><path class="cls-3" d="M25.94,89.11l.25-1s7.2-9.76-1.44-18.83c0,0-6.39-4.12-12,7.7L11.17,89.11Z"/><path class="cls-2" d="M62.23,22.9c1.39,4.62.77,4,.77,4,3.59-9.51.1-15.92.1-15.92C55.7-5.22,37.26,1.3,37.26,1.3c-16.15,4-11.67,25.27-11.67,25.27,1,8.92,6.19,11.55,6.19,11.55a14.61,14.61,0,0,1,0-9.38c1-5.81,4.2-5.28,4.2-5.28S55.37,18.9,54.9,11.66A16.89,16.89,0,0,0,62.23,22.9Z"/><path class="cls-7" d="M39.72,89.11V76.64L31.78,63.83l-8.08,3-.07,0-.08,0-.16.06-.14,0-.32.11-.2.08-.39.16-.26.12-.36.17-.31.16-.48.26c-.16.08-.31.17-.48.27l-.46.29-.39.26-.43.31-.4.3-.07.06c-1.87,1.07-4,3.26-6,7.45L11.17,89.11Z"/><path class="cls-7" d="M65.92,89.11a20.37,20.37,0,0,0-1.67-6c-3.46-5.74.07-14.09.07-14.09a16.48,16.48,0,0,0-3.63-2h0L60.5,67h0l-6.14-2.26-2.88,9.35,0,15Z"/><path class="cls-2" d="M10.88,86.43a9.43,9.43,0,0,0,.85,2.68H38.09a18.8,18.8,0,0,0,2.08-6.63c.69-4.77-1.53-7.84-2.09-12.37-.67-5.47,3.89-6.47,6.07-10.68,2.52-4.89,1.14-8.29-1.92-11.88-2.76-3.25-2.34-7.12-2.46-11.47-.15-5.83,4-5,5.55-9.58s-.19-14.3-3.86-17.43C38.13,6.24,31.71,3.36,29,6.46c-3,3.39-7.89,10.22-7,18.14.68,6.25,4.32,12.24-.5,18.13C16.85,48.34,7.87,54.58,12.54,63c2.49,4.45,4.12,5.65,2,11.1C12.88,78.35,10.18,81.51,10.88,86.43Z"/></g></g></svg>