<svg xmlns="http://www.w3.org/2000/svg" viewBox="0 0 82.79 91.96"><defs><style>.cls-1{fill:#c7e2f3;}.cls-2{fill:#4a0f00;}.cls-3{fill:#be7d5a;}.cls-4{fill:#2ca4d1;}.cls-5{fill:#526a9b;}.cls-6{fill:#4c74a4;}.cls-7{fill:#aa7150;}</style></defs><g id="Layer_2" data-name="Layer 2"><g id="Capa_1" data-name="Capa 1"><path class="cls-1" d="M82.79,83.93c0,4.43-18.53,8-41.39,8S0,88.36,0,83.93s18.53-8,41.4-8S82.79,79.49,82.79,83.93Z"/><path class="cls-2" d="M14.61,28.14s3.73,30.22-1.81,40.77c0,0,14.83-8.12,15.79-15.38,0,0,5.3-31.35-2.28-43.68C26.31,9.85,13.12,3.85,14.61,28.14Z"/><path class="cls-2" d="M17.09,10.42c-1.39,3-2.17,7.23-.84,10.28,2.95,6.76,16.19,8.55,19.84,1.8,2.72-5,1.08-12.27-2.72-16.32C28.09.56,20.06,4,17.09,10.42Z"/><path class="cls-3" d="M64.68,83.7c2-4.8,3-12-5.35-17.77L44.19,69.06S44,77.59,47.34,83.7Z"/><rect class="cls-3" x="33.79" y="49.28" width="11.72" height="15.69"/><path class="cls-3" d="M13.12,71.75a15.91,15.91,0,0,1,8.38-6.41l12.29-4.55H45.51l12.27,4.55a15.91,15.91,0,0,1,8.39,6.41Z"/><path class="cls-4" d="M52.16,83.7c-3.52-6.06-3.79-12.12-1.06-20.84L48.7,62a25.28,25.28,0,0,1-13.54,6s-4.27-1.78-5.2-5.74l-4.12,1.51s-1.72,6.58-9,20Z"/><path class="cls-5" d="M29.7,83.7,27.55,63.09l-1.71.63-6.55,2.21c-7.83,2.9-4.24,14.7-3.16,17.77Z"/><path class="cls-5" d="M63.53,83.7c4.22-13.88-4.2-17.77-4.2-17.77L48.7,62,42.94,83.7Z"/><polygon class="cls-6" points="52.1 83.7 53.54 80.62 48.7 79.65 57.61 65.21 48.7 61.97 42.94 83.7 52.1 83.7"/><path class="cls-3" d="M48.06,45.38a9.49,9.49,0,0,1-2.16,3.15c-4.3,4.14-10,7-16.08,7C14.06,48.69,19.17,18.36,19.17,18.36,21.54,3.85,34,3.88,34,3.88c9.37-.4,17.93,4,19.37,13.91.56,3.78-.17,7.84-.36,11.63a30.42,30.42,0,0,1-1.38,8.2C50.69,40.33,49.19,42.77,48.06,45.38Z"/><path class="cls-7" d="M21.59,47a16.4,16.4,0,0,0,8.23,8.55c6,0,11.78-2.9,16.08-7a9.49,9.49,0,0,0,2.16-3.15c.21-.47.43-.93.66-1.4C41.19,52.53,30.24,60.79,21.59,47Z"/><path class="cls-3" d="M49.71,34.32s1.24-5.16,5.21-3c0,0,1.8.91.5,4.46,0,0-1.88,5.1-5.71,3.23Z"/><path class="cls-3" d="M71.74,83.7C66.85,60.15,57,68.47,57,68.47c-4.64,4.24-3.26,10.94-1.65,15.23Z"/><path class="cls-2" d="M20.72,5.8S21.81,26.25,40.14,27c0,0,9.89.59,8.58,10.09,0,0,.28-7.33,6.2-5.84,0,0,4-5,3.11-14.67,0,0,.54-11-15-15.1C43,1.52,28.66-3.92,20.72,5.8Z"/><path class="cls-2" d="M44.19,28.14s3.72,30.22-1.81,40.77c0,0,14.84-8.12,15.79-15.38,0,0,5.3-31.35-2.28-43.68C55.89,9.85,45.22,13.65,44.19,28.14Z"/><path class="cls-5" d="M55,83.7h18l-2.61-7.15s-2.6-9.36-11.13-10.62c0,0-9.41,5.11-4.94,16.39Z"/><path class="cls-3" d="M26.06,83.7c2.64-17.82-7.68-17-7.68-17-6.95,2-7.92,12.47-8,17Z"/><path class="cls-5" d="M26.69,83.7l.84-7.41s.83-8.75-8.29-10c0,0-7.74-.08-9.32,10.61L9.73,83.7Z"/><polygon class="cls-6" points="20.26 83.7 29.7 83.7 27.55 63.09 19.96 65.93 24.9 79.25 19.32 80.15 20.26 83.7"/></g></g></svg>